<svg width="226" height="264" viewBox="0 0 226 264" fill="none" xmlns="http://www.w3.org/2000/svg">
<path fill-rule="evenodd" clip-rule="evenodd" d="M133.156 83.99C159.505 67.2772 175.198 47.2858 138.021 57C138.021 34.0802 138.021 15.5 104.521 15.5C71.021 15.5 71.021 34.0802 71.021 57C46.5103 57.7125 43.2723 63.6704 77.6397 83.8039C48.6211 90.4562 28 109.854 28 151.5C28 205.348 62.4741 249 105 249C147.526 249 182 205.348 182 151.5C182 141.166 180.73 132.201 178.378 124.462C183.759 124.812 189.917 124.204 196.253 122.506C213.591 117.86 225.695 106.816 223.289 97.8374C220.884 88.859 206.085 89.8485 188.747 94.4941C179.905 96.8633 172.11 99.726 166.913 103.154C158.379 93.2828 146.705 87.2226 133.156 83.99ZM166.913 103.154C171.882 108.9 175.786 115.938 178.378 124.462C169.033 123.854 162.031 120.358 160.504 114.661C159.325 110.261 161.92 106.447 166.913 103.154ZM133.156 83.99C124.282 89.6185 114.199 94.8751 104.521 98.5C93.7897 92.9165 84.8801 88.0456 77.6397 83.8039C86.1415 81.855 95.364 81 105 81C114.937 81 124.435 81.9093 133.156 83.99Z" fill="#379683"/>
<path fill-rule="evenodd" clip-rule="evenodd" d="M133.156 83.99C159.505 67.2772 175.198 47.2858 138.021 57C138.021 34.0802 138.021 15.5 104.521 15.5C71.021 15.5 71.021 34.0802 71.021 57C46.5103 57.7125 43.2723 63.6704 77.6397 83.8039C48.6211 90.4562 28 109.854 28 151.5C28 205.348 62.4741 249 105 249C147.526 249 182 205.348 182 151.5C182 141.166 180.73 132.201 178.378 124.462C183.759 124.812 189.917 124.204 196.253 122.506C213.591 117.86 225.695 106.816 223.289 97.8374C220.884 88.859 206.085 89.8485 188.747 94.4941C179.905 96.8633 172.11 99.726 166.913 103.154C158.379 93.2828 146.705 87.2226 133.156 83.99ZM166.913 103.154C171.882 108.9 175.786 115.938 178.378 124.462C169.033 123.854 162.031 120.358 160.504 114.661C159.325 110.261 161.92 106.447 166.913 103.154ZM133.156 83.99C124.282 89.6185 114.199 94.8751 104.521 98.5C93.7897 92.9165 84.8801 88.0456 77.6397 83.8039C86.1415 81.855 95.364 81 105 81C114.937 81 124.435 81.9093 133.156 83.99Z" fill="#379683"/>
<path fill-rule="evenodd" clip-rule="evenodd" d="M133.156 83.99C159.505 67.2772 175.198 47.2858 138.021 57C138.021 34.0802 138.021 15.5 104.521 15.5C71.021 15.5 71.021 34.0802 71.021 57C46.5103 57.7125 43.2723 63.6704 77.6397 83.8039C48.6211 90.4562 28 109.854 28 151.5C28 205.348 62.4741 249 105 249C147.526 249 182 205.348 182 151.5C182 141.166 180.73 132.201 178.378 124.462C183.759 124.812 189.917 124.204 196.253 122.506C213.591 117.86 225.695 106.816 223.289 97.8374C220.884 88.859 206.085 89.8485 188.747 94.4941C179.905 96.8633 172.11 99.726 166.913 103.154C158.379 93.2828 146.705 87.2226 133.156 83.99ZM166.913 103.154C171.882 108.9 175.786 115.938 178.378 124.462C169.033 123.854 162.031 120.358 160.504 114.661C159.325 110.261 161.92 106.447 166.913 103.154ZM133.156 83.99C124.282 89.6185 114.199 94.8751 104.521 98.5C93.7897 92.9165 84.8801 88.0456 77.6397 83.8039C86.1415 81.855 95.364 81 105 81C114.937 81 124.435 81.9093 133.156 83.99Z" fill="#379683"/>
<g filter="url(#filter0_f_1:16)">
<path fill-rule="evenodd" clip-rule="evenodd" d="M120.156 83.49C146.505 66.7772 162.198 46.7858 125.021 56.5C125.021 33.5802 125.021 15 91.521 15C58.021 15 58.021 33.5802 58.021 56.5C33.5103 57.2125 30.2723 63.1704 64.6397 83.3039C35.6211 89.9562 15 109.354 15 151C15 204.848 49.4741 248.5 92 248.5C134.526 248.5 169 204.848 169 151C169 140.666 167.73 131.701 165.378 123.962C170.759 124.312 176.917 123.704 183.253 122.006C200.591 117.36 212.695 106.316 210.289 97.3374C207.884 88.359 193.085 89.3485 175.747 93.9941C166.905 96.3633 159.11 99.226 153.913 102.654C145.379 92.7828 133.705 86.7226 120.156 83.49ZM153.913 102.654C158.882 108.4 162.786 115.438 165.378 123.962C156.033 123.354 149.031 119.858 147.504 114.161C146.325 109.761 148.92 105.947 153.913 102.654ZM120.156 83.49C111.282 89.1185 101.199 94.3751 91.521 98C80.7897 92.4165 71.8801 87.5456 64.6397 83.3039C73.1415 81.355 82.364 80.5 92 80.5C101.937 80.5 111.435 81.4093 120.156 83.49Z" fill="#379683"/>
<path fill-rule="evenodd" clip-rule="evenodd" d="M120.156 83.49C146.505 66.7772 162.198 46.7858 125.021 56.5C125.021 33.5802 125.021 15 91.521 15C58.021 15 58.021 33.5802 58.021 56.5C33.5103 57.2125 30.2723 63.1704 64.6397 83.3039C35.6211 89.9562 15 109.354 15 151C15 204.848 49.4741 248.5 92 248.5C134.526 248.5 169 204.848 169 151C169 140.666 167.73 131.701 165.378 123.962C170.759 124.312 176.917 123.704 183.253 122.006C200.591 117.36 212.695 106.316 210.289 97.3374C207.884 88.359 193.085 89.3485 175.747 93.9941C166.905 96.3633 159.11 99.226 153.913 102.654C145.379 92.7828 133.705 86.7226 120.156 83.49ZM153.913 102.654C158.882 108.4 162.786 115.438 165.378 123.962C156.033 123.354 149.031 119.858 147.504 114.161C146.325 109.761 148.92 105.947 153.913 102.654ZM120.156 83.49C111.282 89.1185 101.199 94.3751 91.521 98C80.7897 92.4165 71.8801 87.5456 64.6397 83.3039C73.1415 81.355 82.364 80.5 92 80.5C101.937 80.5 111.435 81.4093 120.156 83.49Z" fill="#379683"/>
<path fill-rule="evenodd" clip-rule="evenodd" d="M120.156 83.49C146.505 66.7772 162.198 46.7858 125.021 56.5C125.021 33.5802 125.021 15 91.521 15C58.021 15 58.021 33.5802 58.021 56.5C33.5103 57.2125 30.2723 63.1704 64.6397 83.3039C35.6211 89.9562 15 109.354 15 151C15 204.848 49.4741 248.5 92 248.5C134.526 248.5 169 204.848 169 151C169 140.666 167.73 131.701 165.378 123.962C170.759 124.312 176.917 123.704 183.253 122.006C200.591 117.36 212.695 106.316 210.289 97.3374C207.884 88.359 193.085 89.3485 175.747 93.9941C166.905 96.3633 159.11 99.226 153.913 102.654C145.379 92.7828 133.705 86.7226 120.156 83.49ZM153.913 102.654C158.882 108.4 162.786 115.438 165.378 123.962C156.033 123.354 149.031 119.858 147.504 114.161C146.325 109.761 148.92 105.947 153.913 102.654ZM120.156 83.49C111.282 89.1185 101.199 94.3751 91.521 98C80.7897 92.4165 71.8801 87.5456 64.6397 83.3039C73.1415 81.355 82.364 80.5 92 80.5C101.937 80.5 111.435 81.4093 120.156 83.49Z" fill="#379683"/>
</g>
<defs>
<filter id="filter0_f_1:16" x="0" y="0" width="225.594" height="263.5" filterUnits="userSpaceOnUse" color-interpolation-filters="sRGB">
<feFlood flood-opacity="0" result="BackgroundImageFix"/>
<feBlend mode="normal" in="SourceGraphic" in2="BackgroundImageFix" result="shape"/>
<feGaussianBlur stdDeviation="7.5" result="effect1_foregroundBlur_1:16"/>
</filter>
</defs>
</svg>
